<svg xmlns="http://www.w3.org/2000/svg" viewBox="0 0 40 40">
  <defs>
    <radialGradient id="hitGrad" cx="30%" cy="30%" r="70%">
      <stop offset="0%" stop-color="#BF616A" />
      <stop offset="100%" stop-color="#A05159" />
    </radialGradient>

    <radialGradient id="missGrad" cx="30%" cy="30%" r="70%">
      <stop offset="0%" stop-color="#ECEFF4" />
      <stop offset="100%" stop-color="#D8DEE9" />
    </radialGradient>

    <linearGradient id="shipGrad" x1="0%" y1="0%" x2="100%" y2="100%">
      <stop offset="0%" stop-color="#434C5E" />
      <stop offset="100%" stop-color="#2E3440" />
    </linearGradient>
  </defs>

  <rect x="0" y="0" width="40" height="40" fill="#4C566A" rx="2" />

  <rect x="1" y="1" width="8" height="8" fill="#5E81AC" rx="1" />
  <rect x="11" y="1" width="8" height="8" fill="#5E81AC" rx="1" />
  <rect x="21" y="1" width="8" height="8" fill="#5E81AC" rx="1" />
  <rect x="31" y="1" width="8" height="8" fill="#5E81AC" rx="1" />

  <rect x="1" y="11" width="8" height="8" fill="#5E81AC" rx="1" />
  <rect x="11" y="11" width="8" height="8" fill="#5E81AC" rx="1" />
  <rect x="21" y="11" width="8" height="8" fill="#5E81AC" rx="1" />
  <rect x="31" y="11" width="8" height="8" fill="#5E81AC" rx="1" />

  <rect x="1" y="21" width="8" height="8" fill="#5E81AC" rx="1" />
  <rect x="11" y="21" width="8" height="8" fill="#5E81AC" rx="1" />
  <rect x="21" y="21" width="8" height="8" fill="#5E81AC" rx="1" />
  <rect x="31" y="21" width="8" height="8" fill="#5E81AC" rx="1" />

  <rect x="1" y="31" width="8" height="8" fill="#5E81AC" rx="1" />
  <rect x="11" y="31" width="8" height="8" fill="#5E81AC" rx="1" />
  <rect x="21" y="31" width="8" height="8" fill="#5E81AC" rx="1" />
  <rect x="31" y="31" width="8" height="8" fill="#5E81AC" rx="1" />

  <rect x="2" y="12" width="6" height="26" rx="3" fill="url(#shipGrad)" />

  <rect x="22" y="2" width="16" height="6" rx="3" fill="url(#shipGrad)" />

  <circle cx="5" cy="25" r="2.5" fill="url(#hitGrad)" /> <circle cx="35" cy="5" r="2.5" fill="url(#hitGrad)" />  <circle cx="15" cy="15" r="2.5" fill="url(#missGrad)" />
  <circle cx="25" cy="25" r="2.5" fill="url(#missGrad)" />
  <circle cx="15" cy="35" r="2.5" fill="url(#missGrad)" />
</svg>
